<svg width="122" height="28" viewBox="0 0 122 28" fill="none" xmlns="http://www.w3.org/2000/svg">
<g clip-path="url(#clip0_53_151)">
<path d="M59.4744 21.1851C59.4744 21.504 59.2513 21.7335 58.9301 21.7335C58.5994 21.7335 58.3859 21.4896 58.3859 21.1851C58.3859 20.8805 58.5994 20.6366 58.9301 20.6366C59.2513 20.6366 59.4744 20.8805 59.4744 21.1851ZM44.3658 20.6366C44.0201 20.6366 43.8215 20.8805 43.8215 21.1851C43.8215 21.4896 44.021 21.7335 44.3658 21.7335C44.6816 21.7335 44.8951 21.504 44.8951 21.1851C44.8899 20.8805 44.6816 20.6366 44.3658 20.6366ZM50.0778 20.6231C49.8153 20.6231 49.6543 20.7868 49.6158 21.0307H50.5441C50.5004 20.7632 50.3306 20.6231 50.0778 20.6231ZM55.3181 20.6366C54.9874 20.6366 54.7888 20.8805 54.7888 21.1851C54.7888 21.4896 54.9883 21.7335 55.3181 21.7335C55.6489 21.7335 55.8624 21.504 55.8624 21.1851C55.8624 20.8805 55.648 20.6366 55.3181 20.6366ZM60.4658 21.86C60.4658 21.8744 60.4806 21.8836 60.4806 21.9115C60.4806 21.9258 60.4658 21.9351 60.4658 21.963C60.4509 21.9773 60.4509 21.9866 60.4413 22.0001C60.4264 22.0144 60.4168 22.0237 60.3879 22.0237C60.373 22.038 60.3634 22.038 60.3345 22.038C60.3196 22.038 60.31 22.038 60.2811 22.0237C60.2663 22.0237 60.2566 22.0094 60.2426 22.0001C60.2278 21.9857 60.2181 21.9765 60.2181 21.963C60.2033 21.9393 60.2033 21.9258 60.2033 21.9115C60.2033 21.8879 60.2033 21.8744 60.2181 21.86C60.2181 21.8364 60.233 21.8229 60.2426 21.8086C60.2575 21.7942 60.2671 21.7942 60.2811 21.7849C60.3056 21.7706 60.3196 21.7706 60.3345 21.7706C60.359 21.7706 60.373 21.7706 60.3879 21.7849C60.4124 21.7984 60.4264 21.7984 60.4413 21.8086C60.4561 21.8187 60.4509 21.8364 60.4658 21.86ZM60.359 21.9258C60.3835 21.9258 60.3835 21.9115 60.3975 21.9115C60.4124 21.8971 60.4124 21.8879 60.4124 21.8744C60.4124 21.8609 60.4124 21.8507 60.3975 21.8372C60.3835 21.8372 60.373 21.8229 60.3441 21.8229H60.2663V21.9866H60.3048V21.9208H60.3196L60.373 21.9866H60.4115L60.359 21.9258ZM63.9999 5.75018V22.2498C63.9992 22.8464 63.7531 23.4184 63.3156 23.8402C62.8781 24.262 62.285 24.4993 61.6663 24.5H38.3326C37.7139 24.4993 37.1208 24.262 36.6833 23.8402C36.2458 23.4184 35.9997 22.8464 35.999 22.2498V5.75018C35.9997 5.1536 36.2458 4.58165 36.6833 4.1598C37.1208 3.73796 37.7139 3.50067 38.3326 3.5H61.6663C62.285 3.50067 62.8781 3.73796 63.3156 4.1598C63.7531 4.58165 63.9992 5.1536 63.9999 5.75018ZM39.1114 12.2932C39.1114 15.8789 42.1301 18.7847 45.8436 18.7847C47.1662 18.7812 48.4588 18.405 49.5624 17.7022C46.0186 14.923 46.0431 9.67766 49.5624 6.89763C48.4599 6.19259 47.1666 5.81611 45.8436 5.81515C42.1301 5.81093 39.1114 8.72089 39.1114 12.2932ZM49.9999 17.3934C53.4273 14.815 53.4124 9.79072 49.9999 7.19883C46.5874 9.79072 46.5725 14.8201 49.9999 17.3934ZM43.0821 20.9699C43.0821 20.5624 42.8048 20.2949 42.3673 20.2806C42.1433 20.2806 41.9053 20.3464 41.7451 20.5852C41.6288 20.3928 41.4293 20.2806 41.1519 20.2806C41.051 20.2786 40.9512 20.3006 40.8613 20.3448C40.7714 20.389 40.6942 20.4538 40.6365 20.5337V20.3278H40.2384V22.0482H40.6365C40.6365 21.1623 40.5149 20.6324 41.074 20.6324C41.5701 20.6324 41.473 21.1108 41.473 22.0482H41.8571C41.8571 21.1901 41.7355 20.6324 42.2946 20.6324C42.7908 20.6324 42.6928 21.1015 42.6928 22.0482H43.0918V20.9699H43.0821ZM45.2653 20.3278H44.8811V20.5337C44.8132 20.4518 44.7265 20.3863 44.6278 20.3424C44.5291 20.2985 44.4211 20.2773 44.3124 20.2806C43.8119 20.2806 43.4278 20.6653 43.4278 21.1851C43.4278 21.7098 43.8119 22.0895 44.3124 22.0895C44.5653 22.0895 44.7499 22.0001 44.8811 21.8364V22.0524H45.2653V20.3278ZM47.234 21.5276C47.234 20.8248 46.121 21.1429 46.121 20.8147C46.121 20.5472 46.6994 20.5902 47.0205 20.7632L47.1806 20.4586C46.7239 20.1726 45.7124 20.1777 45.7124 20.8434C45.7124 21.5133 46.8254 21.2323 46.8254 21.5462C46.8254 21.8415 46.1691 21.8178 45.8191 21.5833L45.6494 21.8786C46.1936 22.2346 47.234 22.1604 47.234 21.5276ZM48.9551 21.963L48.8484 21.644C48.6638 21.7419 48.2551 21.8499 48.2551 21.4517V20.6738H48.8921V20.327H48.2551V19.8022H47.8561V20.327H47.4869V20.6695H47.8561V21.4525C47.8561 22.2777 48.697 22.1275 48.9551 21.963ZM49.6009 21.3352H50.9379C50.9379 20.5759 50.5783 20.2755 50.0918 20.2755C49.5764 20.2755 49.2071 20.6459 49.2071 21.18C49.2071 22.141 50.3061 22.3004 50.8504 21.8457L50.6658 21.5647C50.2869 21.8651 49.7129 21.8364 49.6009 21.3352ZM52.4744 20.3278C52.2513 20.2342 51.9109 20.2435 51.7359 20.5337V20.3278H51.3369V22.0482H51.7359V21.0779C51.7359 20.5337 52.1979 20.6046 52.358 20.6839L52.4744 20.3278ZM52.9898 21.1851C52.9898 20.6501 53.5541 20.4772 53.996 20.791L54.1806 20.4865C53.6163 20.0604 52.5908 20.2941 52.5908 21.1893C52.5908 22.1174 53.6793 22.3047 54.1806 21.8921L53.996 21.5875C53.5489 21.8921 52.9898 21.7107 52.9898 21.1851ZM56.2316 20.3278H55.8326V20.5337C55.4293 20.0182 54.3793 20.3093 54.3793 21.1851C54.3793 22.0853 55.4678 22.3426 55.8326 21.8364V22.0524H56.2316V20.3278ZM57.8696 20.3278C57.7533 20.2713 57.335 20.192 57.1311 20.5337V20.3278H56.747V22.0482H57.1311V21.0779C57.1311 20.5624 57.5686 20.5953 57.7533 20.6839L57.8696 20.3278ZM59.8288 19.6292H59.4446V20.5337C59.0456 20.0233 57.9913 20.2949 57.9913 21.1851C57.9913 22.0946 59.085 22.3376 59.4446 21.8364V22.0524H59.8288V19.6292ZM60.1989 16.1093V16.3253H60.2374V16.1093H60.3293V16.0722H60.1053V16.1093H60.1989ZM60.5191 21.9115C60.5191 21.8879 60.5191 21.86 60.5051 21.8364C60.4903 21.8221 60.4806 21.7993 60.4666 21.7849C60.4526 21.7706 60.4281 21.7613 60.4133 21.7478C60.3888 21.7478 60.3599 21.7335 60.3354 21.7335C60.3205 21.7335 60.2969 21.7478 60.2671 21.7478C60.2478 21.758 60.2299 21.7705 60.2138 21.7849C60.1893 21.7984 60.1753 21.8221 60.1753 21.8364C60.1604 21.86 60.1604 21.8879 60.1604 21.9115C60.1604 21.9258 60.1604 21.9486 60.1753 21.9773C60.1753 21.9916 60.1901 22.0144 60.2138 22.0288C60.229 22.0443 60.2471 22.0569 60.2671 22.0659C60.2916 22.0794 60.3205 22.0794 60.3354 22.0794C60.3599 22.0794 60.3888 22.0794 60.4133 22.0659C60.4281 22.0515 60.4518 22.0423 60.4666 22.0288C60.4815 22.0153 60.4911 21.9916 60.5051 21.9773C60.5191 21.9495 60.5191 21.9258 60.5191 21.9115ZM60.6749 16.0671H60.6066L60.5288 16.2308L60.4509 16.0671H60.3826V16.3202H60.4211V16.1278L60.499 16.2915H60.5524L60.6206 16.1278V16.3202H60.674L60.6749 16.0671ZM60.8884 12.2932C60.8884 8.72089 57.8696 5.81093 54.1561 5.81093C52.8336 5.81437 51.541 6.19064 50.4374 6.89341C53.9426 9.67344 53.996 14.9323 50.4374 17.698C51.5405 18.4017 52.8335 18.778 54.1561 18.7805C57.8696 18.7855 60.8884 15.8789 60.8884 12.2932Z" fill="#FFFDF7"/>
</g>
<rect x="72" y="3" width="21" height="21" rx="3" fill="#FFFDF7"/>
<path d="M77.677 8.63324C76.4044 8.62872 75.1788 9.11386 74.254 9.98817H80.1121C82.2034 9.98817 83.1781 10.9564 83.4467 12.5475C84.1161 11.7732 84.8017 10.9804 85.7874 9.98161L89.6155 9.92649C89.1444 9.48727 88.5903 9.14662 87.9857 8.92454C87.3812 8.70245 86.7383 8.60341 86.0949 8.63324H77.677ZM90.0814 10.8295L87.6476 13.1631L90.2521 16.0244C90.7587 15.3576 91.0324 14.543 91.0312 13.7056C91.0327 12.6696 90.6997 11.6607 90.0819 10.829M83.4848 13.9419C83.3418 14.7288 82.9245 15.4396 82.307 15.9479C81.6895 16.4563 80.9119 16.7294 80.1121 16.7187H73.9688C74.4354 17.2397 75.0072 17.6559 75.6463 17.9399C76.2855 18.224 76.9776 18.3695 77.677 18.3667H86.0954C86.7569 18.3866 87.4155 18.2716 88.031 18.0286C88.6466 17.7857 89.2063 17.4199 89.6759 16.9536L85.8132 16.968L83.4848 13.9419ZM76.3737 12.6075L75.8605 14.2569L78.7344 14.214C78.9474 14.1758 79.1458 14.08 79.3082 13.9371C79.4706 13.7942 79.5908 13.6096 79.6558 13.4033C79.674 13.3143 79.6737 13.2225 79.6548 13.1337C79.6359 13.0448 79.5989 12.9608 79.5461 12.8869C79.4933 12.813 79.4258 12.7508 79.3479 12.7042C79.27 12.6575 79.1833 12.6274 79.0932 12.6158L76.3737 12.6075Z" fill="#3E3A4B"/>
<path d="M90.0814 10.8295L87.6476 13.1631L90.2521 16.0244C90.7587 15.3576 91.0324 14.543 91.0312 13.7056C91.0327 12.6696 90.6997 11.6607 90.0819 10.829M77.677 8.63324C76.4044 8.62872 75.1788 9.11386 74.254 9.98817H80.1121C82.2034 9.98817 83.1781 10.9564 83.4467 12.5475C84.1161 11.7732 84.8017 10.9804 85.7874 9.98161L89.6155 9.92649C89.1444 9.48727 88.5903 9.14662 87.9857 8.92454C87.3812 8.70245 86.7383 8.60341 86.0949 8.63324H77.677ZM83.4848 13.9419C83.3418 14.7288 82.9245 15.4396 82.307 15.9479C81.6895 16.4563 80.9119 16.7294 80.1121 16.7187H73.9688C74.4354 17.2397 75.0072 17.6559 75.6463 17.9399C76.2855 18.224 76.9776 18.3695 77.677 18.3667H86.0954C86.7569 18.3866 87.4155 18.2716 88.031 18.0286C88.6466 17.7857 89.2063 17.4199 89.6759 16.9536L85.8132 16.968L83.4848 13.9419ZM76.3737 12.6075L75.8605 14.2569L78.7344 14.214C78.9474 14.1758 79.1458 14.08 79.3082 13.9371C79.4706 13.7942 79.5908 13.6096 79.6558 13.4033C79.674 13.3143 79.6737 13.2225 79.6548 13.1337C79.6359 13.0448 79.5989 12.9608 79.5461 12.8869C79.4933 12.813 79.4258 12.7508 79.3479 12.7042C79.27 12.6575 79.1833 12.6274 79.0932 12.6158L76.3737 12.6075Z" stroke="#3E3A4B" stroke-width="0.5" stroke-linecap="round" stroke-linejoin="round"/>
<path d="M22.8521 12.9464C22.8521 12.9464 23.2215 14.6979 23.3042 15.0652H21.6806C21.841 14.6461 22.4583 13.017 22.4583 13.017C22.4486 13.0311 22.6187 12.5886 22.716 12.3155L22.8521 12.9464ZM28 5.82254V22.3962C28 23.6439 26.9549 24.6562 25.6667 24.6562H2.33333C1.04514 24.6562 0 23.6439 0 22.3962V5.82254C0 4.57481 1.04514 3.5625 2.33333 3.5625H25.6667C26.9549 3.5625 28 4.57481 28 5.82254ZM7.41319 17.6501L10.4854 10.3426H8.41944L6.50903 15.3336L6.3 14.3213L5.61944 10.9594C5.50764 10.4933 5.1625 10.3615 4.73472 10.3426H1.58958L1.55556 10.4886C2.32361 10.6769 3.00903 10.95 3.60694 11.2937L5.34722 17.6501H7.41319ZM12.0021 17.6595L13.2271 10.3426H11.2729L10.0528 17.6595H12.0021ZM18.8028 15.2676C18.8125 14.4343 18.2875 13.7986 17.1646 13.276C16.4792 12.9417 16.0611 12.7157 16.0611 12.372C16.0708 12.0612 16.416 11.741 17.184 11.741C17.8208 11.7269 18.2875 11.8729 18.6375 12.0188L18.8125 12.0989L19.0799 10.5168C18.6958 10.3709 18.0833 10.2061 17.3299 10.2061C15.4 10.2061 14.0438 11.2043 14.034 12.6262C14.0194 13.6762 15.0063 14.26 15.7451 14.6132C16.4986 14.971 16.7563 15.2064 16.7563 15.5219C16.7465 16.0116 16.1438 16.2376 15.5847 16.2376C14.8069 16.2376 14.3889 16.1199 13.7521 15.8468L13.4944 15.7291L13.2222 17.3723C13.6792 17.5748 14.525 17.7537 15.4 17.7631C17.4514 17.7678 18.7882 16.7838 18.8028 15.2676ZM25.6667 17.6595L24.0917 10.3426H22.5799C22.1132 10.3426 21.7583 10.4745 21.559 10.95L18.6569 17.6595H20.7083C20.7083 17.6595 21.0438 16.7555 21.1167 16.5625H23.625C23.6833 16.8214 23.8583 17.6595 23.8583 17.6595H25.6667Z" fill="#FFFDF7"/>
<rect x="101" y="3" width="21" height="21" rx="3" fill="#FFFDF7"/>
<path d="M114.815 14.6691L115.803 16.7315C115.848 16.8257 115.873 16.9272 115.875 17.03C115.877 17.1328 115.857 17.235 115.816 17.3307C115.774 17.4265 115.713 17.5139 115.635 17.588C115.556 17.662 115.463 17.7214 115.359 17.7625L110.837 19.5597C110.628 19.6427 110.392 19.6467 110.18 19.5709C109.967 19.4951 109.797 19.3457 109.706 19.1554L105.447 10.2686C105.356 10.0783 105.351 9.86274 105.434 9.66946C105.518 9.47617 105.682 9.32094 105.891 9.2379L110.412 7.4404C110.516 7.39925 110.627 7.37708 110.74 7.37514C110.853 7.3732 110.965 7.39154 111.07 7.42912C111.176 7.46669 111.272 7.52275 111.353 7.59411C111.434 7.66547 111.499 7.75072 111.545 7.84499L112.628 10.1057" fill="#3E3A4B"/>
<path d="M114.815 14.6691L115.803 16.7315C115.848 16.8257 115.873 16.9272 115.875 17.03C115.877 17.1328 115.857 17.235 115.816 17.3307C115.774 17.4265 115.713 17.5139 115.635 17.588C115.556 17.662 115.463 17.7214 115.359 17.7625L110.837 19.5597C110.628 19.6427 110.392 19.6467 110.18 19.5709C109.967 19.4951 109.797 19.3457 109.706 19.1554L105.447 10.2686C105.356 10.0783 105.351 9.86274 105.434 9.66946C105.518 9.47617 105.682 9.32094 105.891 9.2379L110.412 7.4404C110.516 7.39925 110.627 7.37708 110.74 7.37514C110.853 7.3732 110.965 7.39154 111.07 7.42912C111.176 7.46669 111.272 7.52275 111.353 7.59411C111.434 7.66547 111.499 7.75072 111.545 7.84499L112.628 10.1057" stroke="#FFFDF7" stroke-width="0.5" stroke-linecap="round" stroke-linejoin="round"/>
<path d="M109.75 11.5806L111.291 15.25C112.293 14.7707 113.391 14.5174 114.506 14.5084C115.59 14.508 116.659 14.7621 117.625 15.25V11.5806C117.236 11.3386 116.805 11.1708 116.354 11.0862L115.565 9.12788C114.486 9.09767 113.414 9.30556 112.426 9.7364C110.193 10.7059 109.75 11.5806 109.75 11.5806Z" fill="#3E3A4B" stroke="#FFFDF7" stroke-width="0.5" stroke-linecap="round" stroke-linejoin="round"/>
<defs>
<clipPath id="clip0_53_151">
<rect width="28" height="28" fill="white" transform="translate(36)"/>
</clipPath>
</defs>
</svg>
