<svg width="318" height="43" viewBox="0 0 318 43" fill="none" xmlns="http://www.w3.org/2000/svg">
<path d="M5.21 41.865C3.83 41.865 2.69 41.445 1.79 40.605C0.89 39.765 0.44 38.7 0.44 37.41V13.605C0.44 12.285 0.875 11.19 1.745 10.32C2.615 9.42 3.755 8.97 5.165 8.97C6.665 8.97 7.835 9.42 8.675 10.32C9.515 11.19 9.935 12.255 9.935 13.515V21.84H18.305V13.605C18.305 12.285 18.74 11.19 19.61 10.32C20.48 9.42 21.65 8.97 23.12 8.97C24.59 8.97 25.745 9.42 26.585 10.32C27.425 11.19 27.845 12.255 27.845 13.515V37.41C27.845 38.7 27.395 39.765 26.495 40.605C25.625 41.445 24.53 41.865 23.21 41.865C21.77 41.865 20.585 41.445 19.655 40.605C18.755 39.765 18.305 38.7 18.305 37.41V28.455H9.935V37.41C9.935 38.7 9.485 39.765 8.585 40.605C7.715 41.445 6.59 41.865 5.21 41.865ZM45.2094 42.135C41.9994 42.135 39.2844 41.43 37.0644 40.02C34.8444 38.61 33.1644 36.66 32.0244 34.17C30.8844 31.68 30.3144 28.815 30.3144 25.575C30.3144 22.365 30.8844 19.515 32.0244 17.025C33.1644 14.505 34.8444 12.54 37.0644 11.13C39.2844 9.69 41.9994 8.97 45.2094 8.97C48.4194 8.97 51.1194 9.69 53.3094 11.13C55.5294 12.54 57.2094 14.505 58.3494 17.025C59.4894 19.515 60.0594 22.365 60.0594 25.575C60.0594 28.815 59.4894 31.68 58.3494 34.17C57.2094 36.66 55.5294 38.61 53.3094 40.02C51.1194 41.43 48.4194 42.135 45.2094 42.135ZM35.9844 24.855C35.9844 25.785 36.2094 26.67 36.6594 27.51C37.1094 28.32 37.9944 28.98 39.3144 29.49C40.6344 29.97 42.5994 30.21 45.2094 30.21C47.8194 30.21 49.7694 29.97 51.0594 29.49C52.3794 28.98 53.2644 28.32 53.7144 27.51C54.1644 26.67 54.3894 25.785 54.3894 24.855C54.3894 23.895 54.1644 23.04 53.7144 22.29C53.2644 21.51 52.3794 20.895 51.0594 20.445C49.7694 19.965 47.8194 19.725 45.2094 19.725C42.5994 19.725 40.6344 19.965 39.3144 20.445C37.9944 20.895 37.1094 21.51 36.6594 22.29C36.2094 23.04 35.9844 23.895 35.9844 24.855ZM36.1194 4.11C36.1194 2.94 36.4944 1.995 37.2444 1.275C37.9944 0.524998 39.0144 0.149997 40.3044 0.149997C41.5644 0.149997 42.5544 0.509998 43.2744 1.23C44.0244 1.95 44.3994 2.895 44.3994 4.065C44.3994 5.265 44.0394 6.21 43.3194 6.9C42.6294 7.56 41.6244 7.89 40.3044 7.89C38.9844 7.89 37.9494 7.56 37.1994 6.9C36.4794 6.21 36.1194 5.28 36.1194 4.11ZM45.7944 4.11C45.7944 2.94 46.1694 1.995 46.9194 1.275C47.6994 0.524998 48.7344 0.149997 50.0244 0.149997C51.2544 0.149997 52.2294 0.509998 52.9494 1.23C53.6994 1.95 54.0744 2.895 54.0744 4.065C54.0744 5.265 53.7294 6.21 53.0394 6.9C52.3494 7.56 51.3444 7.89 50.0244 7.89C48.6444 7.89 47.5944 7.56 46.8744 6.9C46.1544 6.21 45.7944 5.28 45.7944 4.11ZM73.7524 42.315C71.5324 42.315 69.4774 41.925 67.5874 41.145C65.6974 40.335 64.1824 39.105 63.0424 37.455C61.9324 35.775 61.3774 33.645 61.3774 31.065C61.3774 29.295 61.7974 27.945 62.6374 27.015C63.5074 26.085 64.6774 25.62 66.1474 25.62C67.6474 25.62 68.8024 26.025 69.6124 26.835C70.4524 27.615 70.8724 28.8 70.8724 30.39C70.8724 31.83 71.1274 32.82 71.6374 33.36C72.1774 33.87 72.8224 34.125 73.5724 34.125C74.3224 34.125 74.9374 33.87 75.4174 33.36C75.8974 32.82 76.1374 31.83 76.1374 30.39V27.285C76.1374 25.755 76.3324 24.495 76.7224 23.505C77.1424 22.515 77.6224 21.75 78.1624 21.21C78.7024 20.64 79.1824 20.265 79.6024 20.085L79.3774 19.23H68.0824C66.6424 19.23 65.4874 18.81 64.6174 17.97C63.7774 17.1 63.3274 15.9 63.2674 14.37C63.2374 12.87 63.6724 11.655 64.5724 10.725C65.4724 9.795 66.6424 9.33 68.0824 9.33H81.0424C82.4524 9.33 83.5174 9.81 84.2374 10.77C84.9874 11.7 85.3624 12.915 85.3624 14.415V31.065C85.3624 33.645 84.8524 35.775 83.8324 37.455C82.8424 39.105 81.4624 40.335 79.6924 41.145C77.9524 41.925 75.9724 42.315 73.7524 42.315ZM102.059 42.135C100.379 42.135 98.6838 41.97 96.9738 41.64C95.2938 41.28 93.7338 40.77 92.2938 40.11C90.8838 39.42 89.7438 38.595 88.8738 37.635C88.0038 36.645 87.5688 35.505 87.5688 34.215C87.5688 32.565 88.0938 31.245 89.1438 30.255C90.1938 29.265 91.4238 28.8 92.8338 28.86C93.9438 28.89 95.0538 29.13 96.1638 29.58C97.2738 30 98.3988 30.42 99.5388 30.84C100.709 31.26 101.879 31.47 103.049 31.47C104.219 31.47 105.029 31.32 105.479 31.02C105.929 30.72 106.154 30.315 106.154 29.805C106.154 29.205 105.839 28.71 105.209 28.32C104.579 27.93 103.784 27.63 102.824 27.42L100.619 26.88C98.3388 26.34 96.2988 25.74 94.4988 25.08C92.6988 24.39 91.2738 23.49 90.2238 22.38C89.2038 21.24 88.6938 19.725 88.6938 17.835C88.6938 15.765 89.2638 14.085 90.4038 12.795C91.5438 11.475 93.0888 10.515 95.0388 9.915C96.9888 9.315 99.1638 9.015 101.564 9.015C104.024 9.015 106.184 9.27 108.044 9.78C109.904 10.29 111.344 11.025 112.364 11.985C113.414 12.945 113.939 14.115 113.939 15.495C113.939 16.965 113.534 18.12 112.724 18.96C111.944 19.77 110.894 20.175 109.574 20.175C108.704 20.175 107.789 20.025 106.829 19.725C105.899 19.425 104.909 19.14 103.859 18.87C102.839 18.57 101.744 18.42 100.574 18.42C99.5238 18.42 98.7288 18.585 98.1888 18.915C97.6488 19.215 97.3788 19.62 97.3788 20.13C97.3788 20.76 97.7388 21.225 98.4588 21.525C99.1788 21.825 100.364 22.185 102.014 22.605L104.534 23.19C106.604 23.7 108.419 24.315 109.979 25.035C111.539 25.755 112.754 26.7 113.624 27.87C114.494 29.04 114.929 30.57 114.929 32.46C114.929 34.74 114.389 36.6 113.309 38.04C112.229 39.45 110.729 40.485 108.809 41.145C106.889 41.805 104.639 42.135 102.059 42.135ZM127.149 21.705L133.899 12.165C135.099 10.455 136.404 9.495 137.814 9.285C139.224 9.045 140.499 9.375 141.639 10.275C142.389 10.845 142.884 11.61 143.124 12.57C143.364 13.53 143.289 14.55 142.899 15.63C142.509 16.71 141.729 17.73 140.559 18.69L133.044 24.765V25.71C134.004 25.71 135.129 25.83 136.419 26.07C137.709 26.31 138.879 26.85 139.929 27.69C140.769 28.32 141.489 29.04 142.089 29.85C142.719 30.66 143.214 31.665 143.574 32.865C143.934 34.035 144.114 35.52 144.114 37.32C144.114 38.79 143.709 39.975 142.899 40.875C142.119 41.745 140.949 42.18 139.389 42.18C137.829 42.18 136.629 41.745 135.789 40.875C134.979 39.975 134.574 38.79 134.574 37.32C134.574 35.67 134.304 34.365 133.764 33.405C133.254 32.415 132.564 31.695 131.694 31.245C130.824 30.795 129.879 30.57 128.859 30.57H126.654V37.635C126.654 38.925 126.204 39.99 125.304 40.83C124.434 41.67 123.309 42.09 121.929 42.09C120.549 42.09 119.409 41.67 118.509 40.83C117.639 39.99 117.204 38.925 117.204 37.635V13.83C117.204 12.51 117.639 11.4 118.509 10.5C119.379 9.6 120.519 9.15 121.929 9.15C123.429 9.15 124.584 9.6 125.394 10.5C126.234 11.37 126.654 12.45 126.654 13.74V21.615L127.149 21.705ZM158.896 42.135C155.686 42.135 152.971 41.43 150.751 40.02C148.531 38.61 146.851 36.66 145.711 34.17C144.571 31.68 144.001 28.815 144.001 25.575C144.001 22.365 144.571 19.515 145.711 17.025C146.851 14.505 148.531 12.54 150.751 11.13C152.971 9.69 155.686 8.97 158.896 8.97C162.106 8.97 164.806 9.69 166.996 11.13C169.216 12.54 170.896 14.505 172.036 17.025C173.176 19.515 173.746 22.365 173.746 25.575C173.746 28.815 173.176 31.68 172.036 34.17C170.896 36.66 169.216 38.61 166.996 40.02C164.806 41.43 162.106 42.135 158.896 42.135ZM149.671 24.855C149.671 25.785 149.896 26.67 150.346 27.51C150.796 28.32 151.681 28.98 153.001 29.49C154.321 29.97 156.286 30.21 158.896 30.21C161.506 30.21 163.456 29.97 164.746 29.49C166.066 28.98 166.951 28.32 167.401 27.51C167.851 26.67 168.076 25.785 168.076 24.855C168.076 23.895 167.851 23.04 167.401 22.29C166.951 21.51 166.066 20.895 164.746 20.445C163.456 19.965 161.506 19.725 158.896 19.725C156.286 19.725 154.321 19.965 153.001 20.445C151.681 20.895 150.796 21.51 150.346 22.29C149.896 23.04 149.671 23.895 149.671 24.855ZM176.133 13.605C176.133 12.225 176.553 11.16 177.393 10.41C178.263 9.63 179.373 9.24 180.723 9.24C182.133 9.24 183.258 9.63 184.098 10.41C184.938 11.16 185.358 12.225 185.358 13.605V32.775C185.358 33.345 185.508 33.75 185.808 33.99C186.108 34.2 186.603 34.11 187.293 33.72C188.793 32.85 190.128 32.16 191.298 31.65C192.468 31.11 193.758 30.84 195.168 30.84C197.118 30.84 198.588 31.35 199.578 32.37C200.568 33.39 201.063 34.725 201.063 36.375C201.063 38.145 200.523 39.51 199.443 40.47C198.393 41.43 196.698 41.91 194.358 41.91H185.088C183.108 41.91 181.458 41.685 180.138 41.235C178.818 40.755 177.813 39.9 177.123 38.67C176.463 37.44 176.133 35.655 176.133 33.315V13.605ZM212.997 41.91C211.527 41.91 210.117 41.775 208.767 41.505C207.447 41.235 206.277 40.725 205.257 39.975C204.267 39.195 203.472 38.085 202.872 36.645C202.302 35.175 202.017 33.255 202.017 30.885C202.017 28.755 202.302 26.925 202.872 25.395C203.442 23.865 204.117 22.65 204.897 21.75C205.707 20.85 206.442 20.295 207.102 20.085L206.877 19.23H206.112C204.732 19.23 203.637 18.795 202.827 17.925C202.047 17.025 201.642 15.81 201.612 14.28C201.582 12.78 201.972 11.58 202.782 10.68C203.622 9.78 204.732 9.33 206.112 9.33H222.267C225.477 9.33 227.082 10.83 227.082 13.83C227.082 15.18 226.692 16.26 225.912 17.07C225.132 17.88 223.917 18.285 222.267 18.285H212.952C211.842 18.285 211.287 18.93 211.287 20.22V23.595C212.787 23.265 214.347 22.875 215.967 22.425C217.617 21.975 219.177 21.75 220.647 21.75C222.057 21.75 223.107 22.065 223.797 22.695C224.517 23.295 224.877 24.12 224.877 25.17C224.877 26.25 224.517 27.105 223.797 27.735C223.107 28.335 222.057 28.65 220.647 28.68C219.177 28.71 217.617 28.5 215.967 28.05C214.317 27.6 212.742 27.21 211.242 26.88V32.775C211.242 33.345 211.392 33.75 211.692 33.99C212.022 34.2 212.532 34.11 213.222 33.72C214.722 32.85 216.192 32.16 217.632 31.65C219.072 31.11 220.482 30.84 221.862 30.84C223.812 30.84 225.282 31.35 226.272 32.37C227.292 33.39 227.802 34.725 227.802 36.375C227.802 38.145 227.262 39.51 226.182 40.47C225.132 41.43 223.422 41.91 221.052 41.91H212.997ZM234.249 42C232.749 42 231.609 41.535 230.829 40.605C230.049 39.675 229.659 38.43 229.659 36.87V15.765C229.659 14.205 229.944 12.945 230.514 11.985C231.114 10.995 231.879 10.275 232.809 9.825C233.769 9.375 234.804 9.15 235.914 9.15C237.564 9.15 238.959 9.585 240.099 10.455C241.239 11.325 242.124 12.855 242.754 15.045L247.614 31.65H248.334V14.37C248.334 12.78 248.739 11.535 249.549 10.635C250.359 9.705 251.514 9.24 253.014 9.24C254.574 9.24 255.729 9.705 256.479 10.635C257.259 11.535 257.649 12.78 257.649 14.37V34.71C257.649 37.23 257.094 39.09 255.984 40.29C254.874 41.49 253.314 42.09 251.304 42.09C249.264 42.09 247.674 41.55 246.534 40.47C245.394 39.39 244.524 37.8 243.924 35.7L240.729 24.765C240.669 24.465 240.549 24.195 240.369 23.955C240.219 23.685 240.009 23.55 239.739 23.55C239.409 23.55 239.184 23.685 239.064 23.955C238.944 24.195 238.884 24.465 238.884 24.765V36.87C238.884 38.43 238.494 39.675 237.714 40.605C236.934 41.535 235.779 42 234.249 42ZM272.253 9.24C275.823 9.24 278.733 9.915 280.983 11.265C283.263 12.585 284.943 14.475 286.023 16.935C287.133 19.365 287.688 22.26 287.688 25.62C287.688 31.26 286.473 35.4 284.043 38.04C281.613 40.68 277.893 42 272.883 42H270.903C269.433 42 268.068 41.85 266.808 41.55C265.548 41.25 264.438 40.71 263.478 39.93C262.518 39.12 261.768 37.995 261.228 36.555C260.688 35.115 260.418 33.255 260.418 30.975C260.418 28.845 260.703 27 261.273 25.44C261.873 23.88 262.578 22.635 263.388 21.705C264.198 20.775 264.933 20.205 265.593 19.995L265.368 19.14H264.603C263.223 19.14 262.128 18.705 261.318 17.835C260.538 16.935 260.133 15.735 260.103 14.235C260.073 12.735 260.463 11.535 261.273 10.635C262.113 9.705 263.223 9.24 264.603 9.24H272.253ZM269.013 30.39C269.013 31.02 269.148 31.455 269.418 31.695C269.718 31.935 270.153 32.055 270.723 32.055H273.153C274.683 32.055 275.868 31.725 276.708 31.065C277.548 30.405 278.133 29.565 278.463 28.545C278.823 27.495 279.003 26.385 279.003 25.215C279.003 24.045 278.823 22.92 278.463 21.84C278.133 20.76 277.548 19.875 276.708 19.185C275.868 18.495 274.683 18.15 273.153 18.15H270.723C270.153 18.15 269.718 18.285 269.418 18.555C269.148 18.795 269.013 19.245 269.013 19.905V30.39ZM300.249 21.705L306.999 12.165C308.199 10.455 309.504 9.495 310.914 9.285C312.324 9.045 313.599 9.375 314.739 10.275C315.489 10.845 315.984 11.61 316.224 12.57C316.464 13.53 316.389 14.55 315.999 15.63C315.609 16.71 314.829 17.73 313.659 18.69L306.144 24.765V25.71C307.104 25.71 308.229 25.83 309.519 26.07C310.809 26.31 311.979 26.85 313.029 27.69C313.869 28.32 314.589 29.04 315.189 29.85C315.819 30.66 316.314 31.665 316.674 32.865C317.034 34.035 317.214 35.52 317.214 37.32C317.214 38.79 316.809 39.975 315.999 40.875C315.219 41.745 314.049 42.18 312.489 42.18C310.929 42.18 309.729 41.745 308.889 40.875C308.079 39.975 307.674 38.79 307.674 37.32C307.674 35.67 307.404 34.365 306.864 33.405C306.354 32.415 305.664 31.695 304.794 31.245C303.924 30.795 302.979 30.57 301.959 30.57H299.754V37.635C299.754 38.925 299.304 39.99 298.404 40.83C297.534 41.67 296.409 42.09 295.029 42.09C293.649 42.09 292.509 41.67 291.609 40.83C290.739 39.99 290.304 38.925 290.304 37.635V13.83C290.304 12.51 290.739 11.4 291.609 10.5C292.479 9.6 293.619 9.15 295.029 9.15C296.529 9.15 297.684 9.6 298.494 10.5C299.334 11.37 299.754 12.45 299.754 13.74V21.615L300.249 21.705Z" fill="#FF7B33"/>
</svg>
